<svg width="32" height="32" viewBox="0 0 32 32" fill="none" xmlns="http://www.w3.org/2000/svg">
<path d="M16.0003 29.3337C23.3641 29.3337 29.3337 23.3641 29.3337 16.0003C29.3337 8.63653 23.3641 2.66699 16.0003 2.66699C8.63653 2.66699 2.66699 8.63653 2.66699 16.0003C2.66699 23.3641 8.63653 29.3337 16.0003 29.3337Z" fill="#959595"/>
<path d="M21.3337 15.0003H17.0003V10.667C17.0003 10.1203 16.547 9.66699 16.0003 9.66699C15.4537 9.66699 15.0003 10.1203 15.0003 10.667V15.0003H10.667C10.1203 15.0003 9.66699 15.4537 9.66699 16.0003C9.66699 16.547 10.1203 17.0003 10.667 17.0003H15.0003V21.3337C15.0003 21.8803 15.4537 22.3337 16.0003 22.3337C16.547 22.3337 17.0003 21.8803 17.0003 21.3337V17.0003H21.3337C21.8803 17.0003 22.3337 16.547 22.3337 16.0003C22.3337 15.4537 21.8803 15.0003 21.3337 15.0003Z" fill="white"/>
</svg>
