<svg width="12" height="12" viewBox="0 0 12 12" fill="none" xmlns="http://www.w3.org/2000/svg">
<path d="M6.96787 1.20913L7.95336 3.1964C8.08774 3.47304 8.4461 3.73838 8.74847 3.78919L10.5347 4.08841C11.6769 4.28037 11.9457 5.11592 11.1226 5.94019L9.73396 7.34031C9.49879 7.57743 9.37 8.03473 9.44279 8.36217L9.84035 10.0954C10.1539 11.4673 9.43159 11.998 8.22773 11.281L6.55351 10.2817C6.25115 10.101 5.7528 10.101 5.44484 10.2817L3.77062 11.281C2.57235 11.998 1.84443 11.4616 2.158 10.0954L2.55555 8.36217C2.62835 8.03473 2.49956 7.57743 2.26439 7.34031L0.87574 5.94019C0.0582306 5.11592 0.321402 4.28037 1.46368 4.08841L3.24988 3.78919C3.54664 3.73838 3.90501 3.47304 4.03939 3.1964L5.02488 1.20913C5.56242 0.130811 6.43593 0.130811 6.96787 1.20913Z" fill="#2189FF"/>
</svg>
